<?xml version="1.0" standalone="no"?><!DOCTYPE svg PUBLIC "-//W3C//DTD SVG 1.1//EN" "http://www.w3.org/Graphics/SVG/1.1/DTD/svg11.dtd"><svg t="1569317986990" class="icon" viewBox="0 0 1024 1024" version="1.1" xmlns="http://www.w3.org/2000/svg" p-id="11979" width="250" height="250" data-spm-anchor-id="a313x.7781069.0.i9" xmlns:xlink="http://www.w3.org/1999/xlink"><defs><style type="text/css"></style></defs><path d="M770.792727 890.88H306.269091c-8.843636 0-17.221818 3.258182-23.272727 9.309091-6.050909 6.050909-9.774545 14.429091-9.774546 23.272727s3.723636 17.221818 9.774546 23.272727c6.050909 6.050909 14.894545 9.774545 23.272727 9.309091h464.989091c8.843636 0 17.221818-3.258182 23.272727-9.309091 6.050909-6.050909 9.774545-14.429091 9.774546-23.272727s-3.723636-17.221818-9.774546-23.272727c-6.516364-6.050909-14.894545-9.774545-23.738182-9.309091zM808.96 294.632727c-12.101818-13.963636-32.581818-13.498182-46.545455-1.396363l-180.130909 154.530909c-7.912727 6.981818-19.549091 7.912727-28.858181 2.792727l-181.527273-101.003636c-10.24-5.585455-22.807273-3.723636-30.72 4.654545l-149.876364 155.927273c-6.050909 6.050909-18.152727 31.650909-1.396363 49.803636 6.516364 6.981818 28.392727 10.705455 39.098181 0.465455L353.745455 431.010909c7.912727-8.378182 20.48-10.24 30.72-4.654545l177.803636 99.141818c9.309091 5.12 20.945455 4.189091 29.323636-2.792727L805.236364 338.385455c2.327273-2.327273 4.654545-4.654545 6.050909-7.912728 2.792727-5.12 6.981818-25.6-2.327273-35.84z" fill="#E78E00" p-id="11980"></path><path d="M947.665455 88.901818H73.541818C33.047273 88.901818 0 121.018182 0 161.047273v573.905454c0.465455 40.494545 33.047273 72.610909 73.541818 72.145455h874.123637c40.494545 0 73.541818-32.116364 73.541818-72.145455V161.047273c0-40.029091-33.047273-72.145455-73.541818-72.145455z m5.585454 625.105455c0 19.083636-13.498182 29.323636-29.323636 29.323636H96.349091c-26.996364 0-29.323636-17.221818-29.323636-29.789091V181.527273c0-16.290909 8.378182-29.323636 29.323636-29.323637h822.923636c36.305455 0 33.978182 18.152727 33.978182 33.978182v527.825455z" fill="#388CEB" p-id="11981"></path></svg>